<svg width="24" height="24" viewBox="0 0 24 24" fill="none" xmlns="http://www.w3.org/2000/svg">
    <path d="M1 18.5C1 18.7761 1.22386 19 1.5 19H9.56324C9.83938 19 10.0632 18.7761 10.0632 18.5V17.374C10.0632 17.0979 9.83938 16.874 9.56324 16.874H4.0093C3.73316 16.874 3.5093 16.6502 3.5093 16.374V13.5527C3.5093 13.2766 3.73316 13.0527 4.0093 13.0527H9.04244C9.31859 13.0527 9.54244 12.8289 9.54244 12.5527V11.4268C9.54244 11.1506 9.31859 10.9268 9.04244 10.9268H4.0093C3.73316 10.9268 3.5093 10.7029 3.5093 10.4268V7.62598C3.5093 7.34983 3.73316 7.12598 4.0093 7.12598H9.50913C9.78527 7.12598 10.0091 6.90212 10.0091 6.62598V5.5C10.0091 5.22386 9.78527 5 9.50913 5H1.5C1.22386 5 1 5.22386 1 5.5V18.5Z" fill="#1D1D1D"/>
    <path d="M23 5.5C23 5.22386 22.7761 5 22.5 5H21.0042C20.7281 5 20.5042 5.22386 20.5042 5.5V14.4633C20.5042 14.5073 20.4686 14.543 20.4245 14.543C20.3982 14.543 20.3736 14.53 20.3588 14.5082L14.0113 5.21793C13.9181 5.08156 13.7636 5 13.5984 5H12.1168C11.8407 5 11.6168 5.22386 11.6168 5.5V18.5C11.6168 18.7761 11.8407 19 12.1168 19H13.6261C13.9023 19 14.1261 18.7761 14.1261 18.5V9.53915C14.1261 9.49757 14.1598 9.46387 14.2014 9.46387C14.2263 9.46387 14.2495 9.47613 14.2635 9.49663L20.6191 18.7824C20.7123 18.9186 20.8667 19 21.0317 19H22.5C22.7761 19 23 18.7761 23 18.5V5.5Z" fill="#1D1D1D"/>
</svg>
