<svg width="24" height="24" viewBox="0 0 24 24" fill="none" xmlns="http://www.w3.org/2000/svg">
    <path d="M11.971 22C11.6701 22 11.3693 22 11.0684 22C5.55246 21.4975 1.54087 16.5729 2.04232 11.0452C2.44348 6.22111 6.25449 2.40201 11.0684 2C11.4696 2 11.8707 2.20101 12.0713 2.50251C12.2719 2.80402 12.2719 3.30653 11.971 3.60804C10.9681 4.91457 10.6672 6.52261 10.8678 8.13065C11.0684 9.73869 11.971 11.1457 13.2748 12.0503C15.3809 13.6583 18.2893 13.6583 20.3954 12.0503C20.6962 11.8492 21.0974 11.7487 21.4986 11.9497C21.7994 12.1508 22 12.5528 22 12.9548C21.7994 15.6683 20.4957 18.0804 18.3896 19.7889C16.4841 21.196 14.2777 22 11.971 22ZM8.90823 5.26192C8.99885 4.86302 8.62196 4.5095 8.25541 4.69108C5.84213 5.88656 4.21628 8.2761 3.94783 11.1457C3.54667 15.5678 6.75594 19.4874 11.1687 19.8894C13.2748 20.0905 15.3809 19.4874 16.9855 18.0804C17.8021 17.4109 18.4538 16.5762 18.9407 15.6578C19.1412 15.2795 18.7609 14.8739 18.3421 14.9629C16.1234 15.4343 13.7733 14.9444 11.8707 13.5578C10.1658 12.2513 9.06261 10.4422 8.66145 8.33166C8.58544 7.26527 8.68225 6.2566 8.90823 5.26192Z" fill="#1D1D1D"/>
</svg>
